<svg fill="none" xmlns="http://www.w3.org/2000/svg" viewBox="0 0 204 204">
  <path fill-rule="evenodd" clip-rule="evenodd" d="M204 102c0 56.333-45.667 102-102 102S0 158.333 0 102 45.667 0 102 0s102 45.667 102 102ZM31 141.812V58h42.385c7.815 0 13.883.657 18.02 2.065 4.046 1.314 7.631 4.036 10.022 7.696 2.43 3.678 3.714 7.902 3.853 12.316.394-3.479 1.612-6.864 3.555-9.756 2.771-4.044 6.558-7.242 11.084-9.03 4.895-2.162 11.73-3.291 20.32-3.291 10.529 0 18.565 1.975 24.107 6.02 5.542 4.044 8.775 10.345 9.791 19.092l-24.015 1.411c-.647-3.762-1.94-6.49-4.064-8.276-2.032-1.787-4.895-2.634-8.498-2.54-2.955 0-5.172.658-6.65 1.975-1.478 1.129-2.309 2.822-2.217 4.703 0 1.41.739 2.727 1.848 3.574 1.2 1.129 4.064 2.163 8.59 3.104 11.176 2.445 19.119 4.89 24.014 7.43 4.896 2.54 8.405 5.643 10.53 9.311 2.217 3.762 3.325 8.089 3.325 12.415 0 5.267-1.57 10.44-4.434 14.861-3.048 4.609-7.296 8.183-12.284 10.346-5.265 2.351-11.915 3.574-19.858 3.574-14.04 0-23.738-2.728-29.188-8.277-5.449-5.643-8.497-12.603-9.236-21.068l24.292-1.599c.554 4.045 1.57 7.054 3.233 9.218 2.586 3.385 6.373 5.172 11.268 5.172 3.602 0 6.466-.846 8.405-2.633 1.848-1.505 2.956-3.668 2.956-6.019 0-2.258-1.016-4.421-2.771-5.832-1.847-1.693-6.188-3.386-13.116-4.891-11.176-2.539-19.212-5.925-23.922-10.251-4.21-3.615-6.797-8.732-7.167-14.277-.731 7.06-4.665 13.503-10.83 17.099a27.665 27.665 0 0 1-8.919 3.285c2.299.657 4.597 1.784 6.62 3.098 1.563 1.314 2.85 2.815 4.045 4.411 1.38 1.595 2.575 3.379 3.586 5.256L112 142H83.13l-13.607-25.81c-1.747-3.285-3.218-5.444-4.597-6.476-1.839-1.314-4.045-1.971-6.252-1.971h-2.206v34.069H31Zm25.468-49.837h10.757a40.123 40.123 0 0 0 6.711-1.126c1.655-.281 3.126-1.22 4.138-2.628 2.482-3.379 2.114-8.165-.92-11.075-1.655-1.407-4.873-2.158-9.47-2.158H56.468v16.987Z" fill="#fff"/>
</svg>
